<svg width="208" height="361" viewBox="0 0 208 361" fill="none" xmlns="http://www.w3.org/2000/svg">
<path d="M70.0494 229.003C66.1102 229.003 63.3072 227.565 61.6406 224.687C59.368 220.598 58.2316 212.949 58.2316 201.742C58.2316 188.565 60.6558 177.963 65.5041 169.936C70.504 161.757 78.9886 153.73 90.9579 145.855C99.1395 140.402 105.806 135.783 110.957 131.997C116.26 128.21 120.124 124.121 122.548 119.729C124.972 115.185 126.184 109.354 126.184 102.236C126.184 91.7855 122.851 83.7584 116.184 78.1546C109.669 72.3993 100.427 69.5217 88.458 69.5217C78.4583 69.5217 69.0646 71.1119 60.277 74.2925C51.6409 77.3216 44.5199 80.5021 38.9141 83.8341C36.9444 85.0457 34.899 85.3487 32.7779 84.7428C30.6567 84.137 29.1416 82.6982 28.2326 80.4264L10.7331 39.3065C9.21801 35.823 10.0513 33.0968 13.233 31.1279C20.354 26.7357 30.7325 22.1164 44.3684 17.2698C58.1559 12.4233 76.1099 10 98.2304 10C117.018 10 133.911 12.8019 148.911 18.4057C164.062 24.0095 176.031 32.8696 184.819 44.986C193.606 57.1024 198 72.8537 198 92.2398C198 106.325 196.258 117.987 192.773 127.226C189.288 136.465 183.91 144.719 176.637 151.989C169.516 159.107 160.425 166.604 149.365 174.48C136.184 183.87 127.548 190.913 123.457 195.608C119.366 200.303 117.321 204.846 117.321 209.239C117.321 212.419 117.624 214.918 118.23 216.736C118.836 218.402 119.139 220.295 119.139 222.415C119.139 226.807 116.487 229.003 111.185 229.003H70.0494ZM44.1412 301.929C44.1412 299.96 44.7472 298.218 45.9593 296.704C47.3229 295.038 49.0653 292.917 51.1864 290.342C55.7317 285.193 60.9588 279.816 66.8677 274.213C72.7766 268.457 78.8371 262.929 85.049 257.628C88.8367 254.599 91.6397 253.085 93.4578 253.085C95.2759 253.085 98.2304 254.599 102.321 257.628C115.048 268.684 126.184 279.589 135.729 290.342C137.699 292.917 139.365 295.038 140.729 296.704C142.093 298.218 142.774 299.96 142.774 301.929C142.774 304.049 142.017 305.942 140.502 307.608C139.138 309.274 137.472 311.47 135.502 314.197C131.108 319.195 125.957 324.495 120.048 330.099C114.29 335.552 108.382 340.928 102.321 346.229C98.5334 349.41 95.579 351 93.4578 351C91.7912 351 88.8367 349.41 84.5945 346.229C78.0795 340.928 72.0191 335.476 66.4132 329.872C60.8073 324.268 55.7317 318.816 51.1864 313.515C49.0653 310.94 47.3229 308.896 45.9593 307.381C44.7472 305.867 44.1412 304.049 44.1412 301.929Z" fill="#84CC16" stroke="black" stroke-width="20"/>
</svg>
